<svg height="512pt" viewBox="0 -21 512 512" width="512pt" xmlns="http://www.w3.org/2000/svg"><path d="m301 394.703125v30c0 24.898437-20.097656 45-45 45s-45-20.101563-45-45v-30c0-8.402344 6.597656-15 15-15h60c8.402344 0 15 6.597656 15 15zm0 0" fill="#4a696f"/><path d="m301 394.703125v30c0 24.898437-20.097656 45-45 45v-90h30c8.402344 0 15 6.597656 15 15zm0 0" fill="#384949"/><path d="m256 19.703125c-94.199219 0-165 75.898437-165 165 0 53.398437 25.5 103.5 70.199219 135 12.300781 8.699219 19.800781 24 19.800781 41.097656v3.902344c0 24.898437 20.097656 45 45 45h60c24.902344 0 45-20.101563 45-45v-4.800781c0-16.199219 8.699219-31.800782 23.699219-43.199219 42-31.5 66.300781-79.5 66.300781-132 0-90.601563-72.898438-164.699219-165-165zm0 0" fill="#ffe470"/><path d="m421 184.703125c0 52.5-24.300781 100.5-66.300781 132-15 11.398437-23.699219 27-23.699219 43.199219v4.800781c0 24.898437-20.097656 45-45 45h-30v-390c92.101562.300781 165 74.398437 165 165zm0 0" fill="#fdbf00"/><path d="m497 199.703125h-31c-8.289062 0-15-6.710937-15-15 0-8.292969 6.710938-15 15-15h31c8.289062 0 15 6.707031 15 15 0 8.289063-6.710938 15-15 15zm0 0" fill="#f4d7af"/><path d="m46 199.703125h-31c-8.289062 0-15-6.710937-15-15 0-8.292969 6.710938-15 15-15h31c8.289062 0 15 6.707031 15 15 0 8.289063-6.710938 15-15 15zm0 0" fill="#faecd8"/><path d="m393.886719 46.816406c-5.859375-5.859375-5.859375-15.351562 0-21.210937l21.210937-21.210938c5.859375-5.859375 15.351563-5.859375 21.210938 0s5.859375 15.351563 0 21.210938l-21.210938 21.210937c-5.859375 5.859375-15.351562 5.859375-21.210937 0zm0 0" fill="#f4d7af"/><path d="m75.691406 365.011719c-5.859375-5.859375-5.859375-15.351563 0-21.210938l21.210938-21.210937c5.859375-5.859375 15.351562-5.859375 21.210937 0 5.859375 5.855468 5.859375 15.351562 0 21.210937l-21.210937 21.210938c-5.859375 5.859375-15.351563 5.859375-21.210938 0zm0 0" fill="#faecd8"/><path d="m96.902344 46.816406-21.210938-21.210937c-5.859375-5.859375-5.859375-15.351563 0-21.210938 5.859375-5.859375 15.351563-5.859375 21.210938 0l21.210937 21.210938c5.859375 5.859375 5.859375 15.351562 0 21.210937s-15.351562 5.859375-21.210937 0zm0 0" fill="#faecd8"/><path d="m415.097656 365.011719-21.210937-21.210938c-5.859375-5.859375-5.859375-15.355469 0-21.210937 5.859375-5.859375 15.351562-5.859375 21.210937 0l21.210938 21.210937c5.859375 5.859375 5.859375 15.351563 0 21.210938s-15.351563 5.859375-21.210938 0zm0 0" fill="#f4d7af"/><path d="m339.402344 202.101562-79.203125-52.5 24.300781-48.300781c3.300781-6.597656 1.199219-14.398437-4.800781-18.898437-6-4.199219-14.097657-3.601563-19.199219 1.800781l-90 90c-3.300781 3-4.800781 7.5-4.5 12 .601562 4.5 3 8.398437 6.597656 11.097656l79.203125 52.5-24.300781 48.300781c-3.300781 6.601563-1.199219 14.402344 4.800781 18.902344 6 4.199219 14.097657 3.597656 19.199219-1.800781l90-90c3.300781-3 4.800781-7.5 4.5-12-.601562-4.5-3-8.402344-6.597656-11.101563zm0 0" fill="#fdbf00"/><path d="m346 213.203125c.300781 4.5-1.199219 9-4.5 12l-85.5 85.5v-222l4.5-4.5c5.101562-5.402344 13.199219-6 19.199219-1.800781 6 4.5 8.101562 12.300781 4.800781 18.898437l-24.300781 48.300781 79.203125 52.5c3.597656 2.699219 5.996094 6.601563 6.597656 11.101563zm0 0" fill="#ff9f00"/></svg>